<svg width="34" height="34" viewBox="0 0 34 34" fill="none" xmlns="http://www.w3.org/2000/svg">
<path d="M17 0.333008C13.7036 0.333008 10.4813 1.31049 7.7405 3.14185C4.99968 4.9732 2.86347 7.57618 1.60201 10.6216C0.34055 13.6671 0.0104941 17.0182 0.653581 20.2512C1.29667 23.4842 2.88401 26.4539 5.21489 28.7848C7.54576 31.1157 10.5155 32.703 13.7485 33.3461C16.9815 33.9892 20.3326 33.6591 23.3781 32.3977C26.4235 31.1362 29.0265 29 30.8578 26.2592C32.6892 23.5184 33.6667 20.296 33.6667 16.9997C33.6618 12.5809 31.9043 8.34448 28.7798 5.21992C25.6552 2.09537 21.4188 0.33786 17 0.333008V0.333008ZM17 30.333C14.3629 30.333 11.7851 29.551 9.5924 28.0859C7.39974 26.6209 5.69078 24.5385 4.68161 22.1021C3.67244 19.6658 3.4084 16.9849 3.92287 14.3985C4.43734 11.8121 5.70721 9.43628 7.57191 7.57158C9.43661 5.70688 11.8124 4.43701 14.3988 3.92254C16.9852 3.40807 19.6661 3.67211 22.1024 4.68128C24.5388 5.69045 26.6212 7.39942 28.0863 9.59207C29.5513 11.7847 30.3333 14.3626 30.3333 16.9997C30.3294 20.5347 28.9233 23.9238 26.4237 26.4234C23.9241 28.923 20.535 30.329 17 30.333V30.333Z" fill="#FED530"/>
<path d="M12 7.74316V26.2565L26.8117 16.9998L12 7.74316ZM15.3333 13.7565L20.5217 16.9998L15.3333 20.2432V13.7565Z" fill="#FED530"/>
</svg>
